<?xml version="1.0" encoding="UTF-8" standalone="no"?>
<!-- Generator: Adobe Illustrator 22.0.1, SVG Export Plug-In . SVG Version: 6.00 Build 0)  -->

<svg
   version="1.1"
   id="Layer_1"
   x="0px"
   y="0px"
   viewBox="0 0 30 30"
   style="enable-background:new 0 0 30 30;"
   xml:space="preserve"
   sodipodi:docname="cloudy.svg"
   inkscape:version="1.2.2 (732a01da63, 2022-12-09)"
   xmlns:inkscape="http://www.inkscape.org/namespaces/inkscape"
   xmlns:sodipodi="http://sodipodi.sourceforge.net/DTD/sodipodi-0.dtd"
   xmlns="http://www.w3.org/2000/svg"
   xmlns:svg="http://www.w3.org/2000/svg"><defs
   id="defs468" /><sodipodi:namedview
   id="namedview466"
   pagecolor="#ffffff"
   bordercolor="#000000"
   borderopacity="0.25"
   inkscape:showpageshadow="2"
   inkscape:pageopacity="0.0"
   inkscape:pagecheckerboard="0"
   inkscape:deskcolor="#d1d1d1"
   showgrid="false"
   inkscape:zoom="25.833333"
   inkscape:cx="14.980645"
   inkscape:cy="14.980645"
   inkscape:window-width="1920"
   inkscape:window-height="991"
   inkscape:window-x="-9"
   inkscape:window-y="-9"
   inkscape:window-maximized="1"
   inkscape:current-layer="Layer_1" />
<path
   d="M3.89,17.6c0-0.99,0.31-1.88,0.93-2.65s1.41-1.27,2.38-1.49c0.26-1.17,0.85-2.14,1.78-2.88c0.93-0.75,2-1.12,3.22-1.12  c1.18,0,2.24,0.36,3.16,1.09c0.93,0.73,1.53,1.66,1.8,2.8h0.27c1.18,0,2.18,0.41,3.01,1.24s1.25,1.83,1.25,3  c0,1.18-0.42,2.18-1.25,3.01s-1.83,1.25-3.01,1.25H8.16c-0.58,0-1.13-0.11-1.65-0.34S5.52,21,5.14,20.62  c-0.38-0.38-0.68-0.84-0.91-1.36S3.89,18.17,3.89,17.6z M5.34,17.6c0,0.76,0.28,1.42,0.82,1.96s1.21,0.82,1.99,0.82h9.28  c0.77,0,1.44-0.27,1.99-0.82c0.55-0.55,0.83-1.2,0.83-1.96c0-0.76-0.27-1.42-0.83-1.96c-0.55-0.54-1.21-0.82-1.99-0.82h-1.39  c-0.1,0-0.15-0.05-0.15-0.15l-0.07-0.49c-0.1-0.94-0.5-1.73-1.19-2.35s-1.51-0.93-2.45-0.93c-0.94,0-1.76,0.31-2.46,0.94  c-0.7,0.62-1.09,1.41-1.18,2.34l-0.07,0.42c0,0.1-0.05,0.15-0.16,0.15l-0.45,0.07c-0.72,0.06-1.32,0.36-1.81,0.89  C5.59,16.24,5.34,16.87,5.34,17.6z M14.19,8.88c-0.1,0.09-0.08,0.16,0.07,0.21c0.43,0.19,0.79,0.37,1.08,0.55  c0.11,0.03,0.19,0.02,0.22-0.03c0.61-0.57,1.31-0.86,2.12-0.86c0.81,0,1.5,0.27,2.1,0.81c0.59,0.54,0.92,1.21,0.99,2l0.09,0.64h1.42  c0.65,0,1.21,0.23,1.68,0.7c0.47,0.47,0.7,1.02,0.7,1.66c0,0.6-0.21,1.12-0.62,1.57s-0.92,0.7-1.53,0.77c-0.1,0-0.15,0.05-0.15,0.16  v1.13c0,0.11,0.05,0.16,0.15,0.16c1.01-0.06,1.86-0.46,2.55-1.19s1.04-1.6,1.04-2.6c0-1.06-0.37-1.96-1.12-2.7  c-0.75-0.75-1.65-1.12-2.7-1.12h-0.15c-0.26-1-0.81-1.82-1.65-2.47c-0.83-0.65-1.77-0.97-2.8-0.97C16.28,7.29,15.11,7.82,14.19,8.88  z"
   id="path463" />
<path
   style="fill:#ffffff;stroke:#ffffff;stroke-width:0.0387097"
   d="M 7.2967742,21.738376 C 6.4867704,21.566314 5.6692562,21.115224 5.106884,20.530031 4.4346167,19.830484 4.0028062,18.881027 3.9342271,17.951613 3.8456375,16.751009 4.182138,15.729825 4.9667482,14.818202 5.4505891,14.256036 6.2094403,13.766539 6.9113243,13.563852 l 0.2919694,-0.08431 0.1276464,-0.410737 c 0.2583684,-0.83137 0.6539671,-1.496588 1.2292409,-2.067028 1.0262826,-1.0176594 2.206688,-1.5082918 3.633367,-1.5101994 1.379174,-0.00184 2.535725,0.4644595 3.538,1.4264674 0.631685,0.606306 1.067975,1.303671 1.301111,2.07969 l 0.113098,0.376463 0.330347,1.54e-4 c 1.898758,8.95e-4 3.603456,1.338943 4.074629,3.19825 0.07386,0.291476 0.08706,0.446178 0.08706,1.02095 0,0.574771 -0.01319,0.729473 -0.08706,1.020949 -0.373478,1.473788 -1.550563,2.66399 -3.060071,3.094173 l -0.297114,0.08467 -5.283871,0.0075 c -4.9635166,0.007 -5.3038193,0.0032 -5.6129028,-0.06243 z M 18.361352,20.257571 c 0.396336,-0.144779 0.671533,-0.317262 1.001622,-0.627779 0.357894,-0.336674 0.6101,-0.714415 0.762052,-1.141363 0.111698,-0.313845 0.118725,-0.366814 0.118725,-0.894881 0,-0.528067 -0.007,-0.581035 -0.118725,-0.89488 -0.291426,-0.818838 -0.977488,-1.485925 -1.815349,-1.765138 -0.297418,-0.09911 -0.34952,-0.103788 -1.316129,-0.118099 -0.553548,-0.0082 -1.020115,-0.0281 -1.036815,-0.04424 -0.0167,-0.01614 -0.06442,-0.25432 -0.106046,-0.529297 -0.08229,-0.543628 -0.222578,-1.047312 -0.376435,-1.351572 -0.505744,-1.000136 -1.460449,-1.723362 -2.558302,-1.938012 -0.379754,-0.07425 -1.133136,-0.07128 -1.507905,0.0059 -1.22736,0.252903 -2.2785313,1.160452 -2.6920745,2.324256 -0.053952,0.151832 -0.1365035,0.517638 -0.1834487,0.812903 -0.046945,0.295265 -0.1046772,0.557588 -0.1282932,0.582941 -0.023616,0.02535 -0.2432609,0.0751 -0.4880996,0.110541 -0.5983576,0.08662 -0.9776512,0.212106 -1.3211815,0.437086 -0.5315977,0.348146 -0.9422771,0.88516 -1.1445204,1.4966 -0.090215,0.272747 -0.1027921,0.374304 -0.1054612,0.851613 -0.00279,0.498075 0.00606,0.569676 0.1093132,0.884704 0.2932096,0.894604 1.0941725,1.643003 1.9940966,1.863232 0.1780177,0.04356 1.1344501,0.05168 5.4225923,0.04603 l 5.206451,-0.0069 z"
   id="path474" /><path
   style="fill:#ffffff;stroke:#ffffff;stroke-width:0.0387097"
   d="m 22.41271,18.284422 c -0.01164,-0.03032 -0.01635,-0.341887 -0.01048,-0.69236 l 0.01068,-0.637223 0.154839,-0.03229 c 0.65814,-0.137253 1.112122,-0.377215 1.486392,-0.785664 0.675637,-0.737339 0.812366,-1.809038 0.34414,-2.697424 -0.18844,-0.357536 -0.672142,-0.824705 -1.04174,-1.006135 -0.426855,-0.209536 -0.748732,-0.259131 -1.681783,-0.259131 -0.787155,0 -0.78946,-2.33e-4 -0.808578,-0.0871 -0.01055,-0.0479 -0.04635,-0.291968 -0.07956,-0.542365 C 20.648434,10.502857 20.24812,9.8367384 19.40384,9.2437955 18.795709,8.8167011 17.895207,8.6350619 17.122764,8.7836825 16.58942,8.8862996 16.170516,9.0810207 15.74497,9.4241286 c -0.133171,0.1073733 -0.269427,0.1952242 -0.302789,0.1952242 -0.06516,0 -1.210016,-0.5613472 -1.274435,-0.6248845 -0.05937,-0.058561 0.611533,-0.6881171 1.017146,-0.954457 0.397206,-0.260819 0.855199,-0.463576 1.327616,-0.5877449 0.415468,-0.1092006 1.397538,-0.151208 1.846647,-0.078989 1.186978,0.1908711 2.277532,0.8577813 3.026308,1.8506875 0.230245,0.3053132 0.550293,0.9342591 0.647595,1.2726271 l 0.06859,0.238529 0.349177,0.02606 c 0.762454,0.0569 1.330708,0.24118 1.888798,0.61252 0.57549,0.382918 1.186593,1.084792 1.42195,1.633161 0.198913,0.463455 0.277688,0.831977 0.2978,1.393138 0.01591,0.443877 0.0056,0.608545 -0.05692,0.910066 -0.154226,0.743669 -0.52876,1.410065 -1.099382,1.956096 -0.367174,0.35135 -0.650293,0.5492 -1.050476,0.734096 -0.498223,0.230193 -1.392841,0.406748 -1.439881,0.284164 z"
   id="path476" /></svg>
