<?xml version="1.0" encoding="UTF-8" standalone="no"?>
<!-- Generator: Adobe Illustrator 22.0.1, SVG Export Plug-In . SVG Version: 6.00 Build 0)  -->

<svg
   version="1.1"
   id="Layer_1"
   x="0px"
   y="0px"
   viewBox="0 0 30 30"
   style="enable-background:new 0 0 30 30;"
   xml:space="preserve"
   sodipodi:docname="foggy.svg"
   inkscape:version="1.2.2 (732a01da63, 2022-12-09)"
   xmlns:inkscape="http://www.inkscape.org/namespaces/inkscape"
   xmlns:sodipodi="http://sodipodi.sourceforge.net/DTD/sodipodi-0.dtd"
   xmlns="http://www.w3.org/2000/svg"
   xmlns:svg="http://www.w3.org/2000/svg"><defs
   id="defs382" /><sodipodi:namedview
   id="namedview380"
   pagecolor="#ffffff"
   bordercolor="#000000"
   borderopacity="0.25"
   inkscape:showpageshadow="2"
   inkscape:pageopacity="0.0"
   inkscape:pagecheckerboard="0"
   inkscape:deskcolor="#d1d1d1"
   showgrid="false"
   inkscape:zoom="26.8"
   inkscape:cx="14.104478"
   inkscape:cy="15"
   inkscape:window-width="1920"
   inkscape:window-height="991"
   inkscape:window-x="-9"
   inkscape:window-y="-9"
   inkscape:window-maximized="1"
   inkscape:current-layer="Layer_1" />
<path
   d="M2.62,21.05c0-0.24,0.08-0.45,0.25-0.61c0.17-0.16,0.38-0.24,0.63-0.24h18.67c0.25,0,0.45,0.08,0.61,0.24  c0.16,0.16,0.24,0.36,0.24,0.61c0,0.23-0.08,0.43-0.25,0.58c-0.17,0.16-0.37,0.23-0.6,0.23H3.5c-0.25,0-0.46-0.08-0.63-0.23  C2.7,21.47,2.62,21.28,2.62,21.05z M5.24,17.91c0-0.24,0.09-0.44,0.26-0.6c0.15-0.15,0.35-0.23,0.59-0.23h18.67  c0.23,0,0.42,0.08,0.58,0.24c0.16,0.16,0.23,0.35,0.23,0.59c0,0.24-0.08,0.44-0.23,0.6c-0.16,0.17-0.35,0.25-0.58,0.25H6.09  c-0.24,0-0.44-0.08-0.6-0.25C5.32,18.34,5.24,18.14,5.24,17.91z M5.37,15.52c0,0.09,0.05,0.13,0.15,0.13h1.43  c0.06,0,0.13-0.05,0.2-0.16c0.24-0.52,0.59-0.94,1.06-1.27c0.47-0.33,0.99-0.52,1.55-0.56l0.55-0.07c0.11,0,0.17-0.06,0.17-0.18  l0.07-0.5c0.11-1.08,0.56-1.98,1.37-2.7c0.81-0.72,1.76-1.08,2.85-1.08c1.08,0,2.02,0.36,2.83,1.07c0.8,0.71,1.26,1.61,1.37,2.68  l0.08,0.57c0,0.11,0.07,0.17,0.2,0.17h1.59c0.64,0,1.23,0.17,1.76,0.52s0.92,0.8,1.18,1.37c0.07,0.11,0.14,0.16,0.21,0.16h1.43  c0.12,0,0.17-0.07,0.14-0.23c-0.29-1.02-0.88-1.86-1.74-2.51c-0.87-0.65-1.86-0.97-2.97-0.97h-0.32c-0.33-1.33-1.03-2.42-2.1-3.27  s-2.28-1.27-3.65-1.27c-1.4,0-2.64,0.44-3.73,1.32s-1.78,2-2.09,3.36c-0.85,0.2-1.6,0.6-2.24,1.21c-0.64,0.61-1.09,1.33-1.34,2.18  v-0.04C5.37,15.45,5.37,15.48,5.37,15.52z M6.98,24.11c0-0.24,0.09-0.43,0.26-0.59c0.15-0.15,0.35-0.23,0.6-0.23h18.68  c0.24,0,0.44,0.08,0.6,0.23c0.17,0.16,0.25,0.35,0.25,0.58c0,0.24-0.08,0.44-0.25,0.61c-0.17,0.17-0.37,0.25-0.6,0.25H7.84  c-0.23,0-0.43-0.09-0.6-0.26C7.07,24.55,6.98,24.34,6.98,24.11z"
   id="path377" />
<path
   style="fill:#ffffff;stroke:#ffffff;stroke-width:0.0373134"
   d="m 23.856544,15.544791 c -0.04834,-0.06031 -0.146656,-0.214146 -0.218484,-0.341856 -0.398168,-0.707938 -1.136283,-1.270946 -1.96097,-1.495759 -0.262083,-0.07144 -0.42714,-0.08339 -1.422212,-0.102955 -0.619145,-0.01217 -1.13485,-0.03131 -1.14601,-0.04252 -0.01116,-0.01121 -0.06221,-0.30055 -0.113442,-0.64297 -0.103958,-0.694822 -0.243205,-1.162884 -0.474239,-1.594104 -0.378181,-0.705866 -0.997814,-1.318563 -1.748799,-1.7292255 -0.322138,-0.1761553 -0.95176,-0.3819112 -1.338315,-0.4373516 -0.484651,-0.06951 -1.319785,-0.026971 -1.769049,0.090109 -1.148959,0.2994231 -2.179534,1.1224061 -2.693693,2.1510951 -0.259574,0.519333 -0.374407,0.936772 -0.469742,1.70758 -0.02605,0.210624 -0.06662,0.398934 -0.09015,0.418466 -0.02353,0.01953 -0.251668,0.06206 -0.5069631,0.0945 -0.7978496,0.101384 -1.1494908,0.219751 -1.6580069,0.558106 -0.3532201,0.235025 -0.7242273,0.617485 -0.9108708,0.938991 -0.069901,0.12041 -0.166688,0.281893 -0.2150816,0.358852 l -0.087988,0.139926 H 6.2296428 c -0.632854,0 -0.8069055,-0.01049 -0.821887,-0.04953 C 5.3803679,15.49477 5.5589067,15.016717 5.757358,14.630052 6.3272846,13.5196 7.3740669,12.62819 8.5634328,12.24048 c 0.1949627,-0.06355 0.372623,-0.126943 0.3948006,-0.140865 0.022178,-0.01392 0.062018,-0.122628 0.088534,-0.241569 0.1653173,-0.741552 0.6503934,-1.658598 1.2457366,-2.3550887 0.650649,-0.7611926 1.720617,-1.4785065 2.652845,-1.7784862 0.658967,-0.2120477 0.985612,-0.2580972 1.83077,-0.2580972 0.673994,0 0.838377,0.011821 1.175374,0.084526 1.235182,0.2664821 2.237951,0.8383903 3.138569,1.7900174 0.582889,0.6159032 1.022923,1.3657837 1.289951,2.1982617 0.0973,0.303334 0.151246,0.41993 0.194482,0.42033 0.457448,0.0042 1.173512,0.08877 1.543651,0.182253 1.0214,0.257958 2.03877,0.941519 2.67602,1.797991 0.355548,0.477861 0.772468,1.381776 0.74075,1.606005 l -0.01253,0.08857 -0.788979,0.01006 -0.788978,0.01006 z"
   id="path570" /><path
   style="fill:#ffffff;stroke:#ffffff;stroke-width:0.0373134"
   d="M 5.8637487,18.71184 C 5.29083,18.539321 5.0804725,17.835373 5.4697012,17.393186 5.7471365,17.078003 4.7572744,17.105327 15.485075,17.116721 l 9.552238,0.01015 0.154417,0.1112 c 0.22928,0.165111 0.323698,0.324831 0.342057,0.578632 0.02709,0.374558 -0.122846,0.675042 -0.41468,0.831034 l -0.15642,0.08361 -9.496269,0.0063 c -5.222948,0.0034 -9.544149,-0.0081 -9.6026693,-0.02577 z"
   id="path572" /><path
   style="fill:#ffffff;stroke:#ffffff;stroke-width:0.0373134"
   d="M 3.2646838,21.812151 C 2.8494028,21.685829 2.586754,21.315279 2.6467143,20.940308 c 0.056532,-0.353535 0.3092903,-0.620031 0.6592507,-0.695084 0.2678919,-0.05745 18.797821,-0.05617 19.065886,0.0013 0.148925,0.03194 0.233243,0.08067 0.371245,0.214552 0.276429,0.26818 0.334052,0.589606 0.166116,0.926609 -0.100959,0.2026 -0.290574,0.361214 -0.505497,0.422853 -0.151967,0.04358 -18.9958328,0.04515 -19.1390312,0.0016 z"
   id="path574" /><path
   style="fill:#ffffff;stroke:#ffffff;stroke-width:0.0373134"
   d="M 7.5901344,24.892943 C 7.267266,24.777525 6.9954058,24.417 6.9970881,24.10648 c 0.00188,-0.347235 0.2881379,-0.690105 0.6390429,-0.765428 0.1481936,-0.03181 2.63898,-0.03994 9.658645,-0.03151 l 9.458955,0.01135 0.149254,0.08032 c 0.282944,0.152273 0.434446,0.395431 0.434415,0.697231 -3.5e-5,0.345048 -0.155695,0.597119 -0.463435,0.750472 l -0.190856,0.09511 -9.479614,-0.0016 c -7.6095949,-0.0013 -9.5059982,-0.01107 -9.6133606,-0.04945 z"
   id="path576" /></svg>
