<?xml version="1.0" encoding="UTF-8" standalone="no"?>
<!-- Generator: Adobe Illustrator 22.0.1, SVG Export Plug-In . SVG Version: 6.00 Build 0)  -->

<svg
   version="1.1"
   id="Layer_1"
   x="0px"
   y="0px"
   viewBox="0 0 30 30"
   style="enable-background:new 0 0 30 30;"
   xml:space="preserve"
   sodipodi:docname="overcast.svg"
   inkscape:version="1.2.2 (732a01da63, 2022-12-09)"
   xmlns:inkscape="http://www.inkscape.org/namespaces/inkscape"
   xmlns:sodipodi="http://sodipodi.sourceforge.net/DTD/sodipodi-0.dtd"
   xmlns="http://www.w3.org/2000/svg"
   xmlns:svg="http://www.w3.org/2000/svg"><defs
   id="defs7" /><sodipodi:namedview
   id="namedview5"
   pagecolor="#ffffff"
   bordercolor="#000000"
   borderopacity="0.25"
   inkscape:showpageshadow="2"
   inkscape:pageopacity="0.0"
   inkscape:pagecheckerboard="0"
   inkscape:deskcolor="#d1d1d1"
   showgrid="false"
   inkscape:zoom="26.8"
   inkscape:cx="14.104478"
   inkscape:cy="15"
   inkscape:window-width="1920"
   inkscape:window-height="991"
   inkscape:window-x="-9"
   inkscape:window-y="-9"
   inkscape:window-maximized="1"
   inkscape:current-layer="Layer_1" />
<path
   d="M3.09,13.43c0,0.27,0.09,0.49,0.28,0.67s0.43,0.26,0.72,0.26h1.69c0.27,0,0.5-0.09,0.69-0.27s0.29-0.4,0.29-0.66  c0-0.29-0.09-0.53-0.28-0.71s-0.42-0.28-0.69-0.28H4.09c-0.29,0-0.53,0.09-0.72,0.28C3.18,12.89,3.09,13.13,3.09,13.43z M4.86,19.61  c0,0.97,0.35,1.81,1.06,2.52c0.71,0.71,1.54,1.06,2.51,1.06h6.86c0.97,0,1.8-0.35,2.49-1.05c0.69-0.7,1.04-1.54,1.04-2.53  c0-0.48-0.07-0.89-0.21-1.23c0.83-0.53,1.49-1.24,1.97-2.12c0.48-0.88,0.73-1.83,0.73-2.84c0-0.81-0.16-1.59-0.48-2.33  c-0.32-0.74-0.75-1.38-1.28-1.91c-0.53-0.53-1.17-0.96-1.91-1.28c-0.74-0.32-1.51-0.48-2.32-0.48c-1.09,0-2.1,0.27-3.02,0.81  s-1.65,1.27-2.18,2.18c-0.53,0.92-0.79,1.92-0.79,3.01v0.34c-1,0.57-1.66,1.4-1.98,2.49c-0.76,0.24-1.36,0.66-1.81,1.27  C5.09,18.13,4.86,18.83,4.86,19.61z M6.42,5.45c0,0.28,0.09,0.51,0.26,0.67l1.61,1.69c0.47,0.36,0.94,0.36,1.41,0  c0.19-0.19,0.28-0.42,0.28-0.7c0-0.27-0.09-0.5-0.28-0.7L8.05,4.76C7.84,4.57,7.6,4.47,7.35,4.47c-0.28,0-0.51,0.09-0.68,0.28  C6.5,4.94,6.42,5.17,6.42,5.45z M6.84,19.61c0-0.42,0.13-0.78,0.4-1.08c0.27-0.3,0.61-0.47,1.02-0.51l0.62-0.08  c0.13,0,0.2-0.08,0.2-0.23l0.09-0.56c0.07-0.58,0.31-1.06,0.73-1.44c0.42-0.39,0.91-0.58,1.48-0.58c0.58,0,1.09,0.19,1.51,0.58  c0.43,0.39,0.68,0.87,0.75,1.44l0.08,0.65c0.06,0.15,0.14,0.23,0.24,0.23h1.32c0.43,0,0.8,0.16,1.12,0.47  c0.32,0.31,0.47,0.68,0.47,1.12c0,0.45-0.16,0.83-0.47,1.15s-0.69,0.48-1.12,0.48H8.43c-0.45,0-0.83-0.16-1.13-0.48  C6.99,20.45,6.84,20.06,6.84,19.61z M11.26,13.22c0.07-1.09,0.49-2.01,1.27-2.76c0.77-0.74,1.71-1.12,2.79-1.12  c1.11,0,2.06,0.4,2.84,1.19c0.78,0.79,1.17,1.76,1.17,2.89c0,0.7-0.17,1.35-0.51,1.95c-0.34,0.6-0.8,1.08-1.38,1.45  c-0.59-0.49-1.27-0.73-2.03-0.73c-0.29-0.88-0.81-1.57-1.54-2.09c-0.73-0.52-1.56-0.78-2.48-0.78H11.26z M14.35,4.47  c0,0.27,0.1,0.51,0.29,0.7c0.19,0.19,0.42,0.29,0.69,0.29c0.28,0,0.51-0.1,0.7-0.29c0.19-0.19,0.29-0.42,0.29-0.7V2.13  c0-0.26-0.1-0.48-0.29-0.66c-0.19-0.18-0.42-0.27-0.7-0.27c-0.27,0-0.5,0.09-0.69,0.27c-0.19,0.18-0.29,0.4-0.29,0.66V4.47z   M20.67,19.7c0,0.27,0.09,0.5,0.27,0.7l1.64,1.62c0.42,0.42,0.89,0.42,1.41,0c0.18-0.17,0.26-0.39,0.26-0.68  c0-0.27-0.09-0.49-0.26-0.67L22.3,19c-0.18-0.17-0.41-0.25-0.68-0.25c-0.28,0-0.5,0.09-0.68,0.27C20.76,19.2,20.67,19.43,20.67,19.7  z M20.67,7.09c0,0.28,0.09,0.52,0.27,0.72c0.18,0.18,0.41,0.27,0.68,0.27c0.27,0,0.5-0.09,0.68-0.27l1.69-1.69  c0.18-0.17,0.26-0.39,0.26-0.67c0-0.28-0.1-0.51-0.29-0.69s-0.42-0.28-0.7-0.28c-0.26,0-0.49,0.1-0.68,0.29L20.94,6.4  C20.76,6.58,20.67,6.81,20.67,7.09z M23.25,13.43c0,0.27,0.09,0.49,0.28,0.67s0.43,0.26,0.72,0.26h1.69c0.27,0,0.5-0.09,0.69-0.27  s0.29-0.4,0.29-0.66c0-0.29-0.09-0.53-0.28-0.71s-0.42-0.28-0.69-0.28h-1.69c-0.29,0-0.53,0.09-0.72,0.28  C23.35,12.89,23.25,13.13,23.25,13.43z"
   id="path2" />
<path
   style="fill:#ffffff;stroke:#ffffff;stroke-width:0.0373134"
   d="M 8.1156716,23.154119 C 7.3278459,23.086226 6.6596628,22.780357 6.0342557,22.201326 5.3814922,21.596967 4.9998687,20.848209 4.9008683,19.977582 c -0.133289,-1.172168 0.3871622,-2.400404 1.3219366,-3.119696 0.2486633,-0.191342 0.7548767,-0.465023 0.9909597,-0.535755 0.1427978,-0.04278 0.1539694,-0.05754 0.2491122,-0.328984 0.2891673,-0.825009 0.8486288,-1.537795 1.594959,-2.032071 l 0.2891791,-0.191515 v -0.328415 c 0,-2.576614 1.5991261,-4.8320757 4.0245021,-5.6762937 0.681267,-0.2371335 1.111412,-0.3026144 1.964304,-0.2990252 0.618597,0.0026 0.809086,0.01694 1.113449,0.083804 2.440445,0.5361282 4.211312,2.3124258 4.730637,4.7451449 0.111121,0.520532 0.122789,1.624265 0.0228,2.156312 -0.16092,0.856229 -0.582895,1.814905 -1.103874,2.507867 -0.40466,0.538244 -0.755203,0.8677 -1.490206,1.400561 -0.0059,0.0043 0.02522,0.131696 0.06921,0.283105 0.113892,0.391949 0.14079,1.197335 0.0553,1.655886 -0.133995,0.718754 -0.490092,1.349596 -1.07613,1.906414 -0.378956,0.360061 -0.607266,0.512224 -1.059302,0.705996 -0.616037,0.264073 -0.445153,0.254114 -4.508155,0.262756 -2.011194,0.0043 -3.7994401,-0.0045 -3.9738804,-0.01955 z m 7.8366274,-2.042002 c 0.519102,-0.256032 0.883281,-0.786363 0.921345,-1.341698 0.03668,-0.535163 -0.09676,-0.907206 -0.453906,-1.265525 -0.249033,-0.249851 -0.530419,-0.405588 -0.837144,-0.463327 -0.110544,-0.02081 -0.534518,-0.03784 -0.942165,-0.03784 -0.943171,0 -0.872079,0.05216 -0.966314,-0.708955 -0.05159,-0.416695 -0.126419,-0.673614 -0.283664,-0.973964 -0.169942,-0.324603 -0.442541,-0.625156 -0.751582,-0.828655 -0.399622,-0.263145 -0.62607,-0.332748 -1.146332,-0.352348 -0.742374,-0.02797 -1.164625,0.130806 -1.6624508,0.625108 -0.4453817,0.44223 -0.5935481,0.78284 -0.7276821,1.672823 -0.054757,0.363312 -0.074848,0.427348 -0.142766,0.45502 -0.043472,0.01771 -0.2889291,0.05919 -0.545459,0.09217 -0.686852,0.08831 -1.0349456,0.273261 -1.3150372,0.698729 -0.3170058,0.481542 -0.3646132,1.130582 -0.1218782,1.661588 0.1058237,0.231499 0.4190317,0.575124 0.6448267,0.707449 0.3417302,0.200268 0.1872571,0.193563 4.2817016,0.185833 l 3.806777,-0.0072 z m 1.752286,-4.451195 c 0.326435,-0.241997 0.757859,-0.696099 0.981825,-1.033437 0.661727,-0.996689 0.837983,-2.306845 0.471231,-3.502768 C 18.899452,11.282803 18.243255,10.439829 17.443186,9.9222669 16.332409,9.203709 14.75449,9.1257329 13.529209,9.7288497 12.804219,10.08571 12.12624,10.741514 11.725174,11.473881 11.485983,11.910656 11.25,12.725897 11.25,13.115447 v 0.10194 l 0.363806,0.02605 c 1.155715,0.08275 2.009513,0.473826 2.807836,1.286096 0.42,0.427338 0.653888,0.7764 0.853713,1.274112 l 0.111792,0.278444 0.333552,0.04161 c 0.589554,0.07355 1.070398,0.255587 1.49945,0.567658 0.112873,0.0821 0.211566,0.150706 0.219317,0.152461 0.0078,0.0018 0.127055,-0.08055 0.265119,-0.1829 z"
   id="path305" /><path
   style="fill:#ffffff;stroke:#ffffff;stroke-width:0.0373134"
   d="M 8.7838646,8.0270558 C 8.6896171,8.0016922 8.5441816,7.9398928 8.4606747,7.8897238 8.3771678,7.8395548 7.9146193,7.3844391 7.432789,6.8783555 6.4497213,5.8458043 6.4078418,5.780841 6.4469835,5.3491799 6.4909551,4.8642535 6.8183233,4.5321688 7.2814627,4.5026783 7.4914501,4.4893073 7.5504211,4.5016897 7.7532604,4.6017438 7.9470913,4.6973544 8.1355167,4.8677417 8.903231,5.6416272 9.941033,6.6877716 9.9637619,6.7214718 9.9380786,7.1760024 9.9169864,7.5492813 9.7820976,7.7573607 9.4575118,7.9173242 9.1639362,8.0620052 9.008073,8.087394 8.7838646,8.0270558 Z"
   id="path307" /><path
   style="fill:#ffffff;stroke:#ffffff;stroke-width:0.0373134"
   d="M 14.914918,5.3329198 C 14.700514,5.2260776 14.556355,5.0752683 14.454005,4.8507463 c -0.06192,-0.1358334 -0.06811,-0.2748488 -0.06886,-1.5460551 -7.87e-4,-1.3410372 0.0023,-1.4032263 0.07709,-1.5577361 0.163552,-0.3378542 0.589735,-0.5672331 0.970192,-0.5221737 0.233507,0.027656 0.529204,0.1805809 0.642943,0.3325105 0.217438,0.2904484 0.211942,0.24496 0.211942,1.7544244 v 1.3937804 l -0.09618,0.1930177 c -0.237906,0.4774151 -0.803537,0.6699483 -1.276211,0.4344054 z"
   id="path309" /><path
   style="fill:#ffffff;stroke:#ffffff;stroke-width:0.0373134"
   d="M 21.448882,8.0416082 C 21.201807,8.0043815 20.958165,7.8293401 20.824854,7.5932836 20.721958,7.4110844 20.708955,7.3545693 20.708955,7.0895522 c 0,-0.2566413 0.01397,-0.3220571 0.0996,-0.4664179 0.140427,-0.2367449 1.876597,-1.9466031 2.064581,-2.033293 0.337339,-0.1555652 0.729331,-0.096419 1.022156,0.1542287 0.299392,0.2562679 0.407242,0.6461092 0.28359,1.025081 -0.0599,0.1835861 -0.148391,0.2840924 -1.021485,1.1602014 -0.984115,0.9875129 -1.099431,1.0782497 -1.42232,1.1191547 -0.07183,0.0091 -0.200615,0.006 -0.286193,-0.0069 z"
   id="path311" /><path
   style="fill:#ffffff;stroke:#ffffff;stroke-width:0.0373134"
   d="m 23.929871,14.294963 c -0.490156,-0.131981 -0.762643,-0.639561 -0.614717,-1.145074 0.07797,-0.266464 0.238968,-0.453592 0.500906,-0.582219 l 0.213791,-0.104983 0.941321,-0.01215 c 1.06046,-0.01369 1.261009,0.01149 1.528951,0.191956 0.486761,0.327841 0.525043,1.077264 0.07472,1.462725 -0.256209,0.219305 -0.399024,0.242122 -1.497659,0.239277 -0.657543,-0.0017 -1.029279,-0.01775 -1.147312,-0.04953 z"
   id="path313" /><path
   style="fill:#ffffff;stroke:#ffffff;stroke-width:0.0373134"
   d="m 23.097015,22.297102 c -0.24254,-0.05884 -0.40631,-0.195002 -1.296805,-1.078232 -0.630957,-0.625808 -0.949174,-0.968814 -1.004144,-1.082368 -0.227335,-0.46961 -0.06568,-1.010482 0.373359,-1.249179 0.257735,-0.140127 0.629322,-0.147648 0.881013,-0.01783 0.221263,0.114121 1.992091,1.861364 2.091574,2.063716 0.05273,0.10725 0.07336,0.227141 0.0738,0.428734 5.14e-4,0.23799 -0.01458,0.305673 -0.100874,0.452473 -0.188708,0.321003 -0.694921,0.561043 -1.017924,0.482689 z"
   id="path315" /><path
   style="fill:#ffffff;stroke:#ffffff;stroke-width:0.0373134"
   d="M 3.7365696,14.287185 C 3.5062639,14.215098 3.2133081,13.932231 3.1562938,13.726892 3.0550157,13.362137 3.1279062,13.029923 3.3647764,12.77669 c 0.2820262,-0.301509 0.3448661,-0.314003 1.5792535,-0.314003 1.0387411,0 1.0675383,0.002 1.2402513,0.08708 0.2163025,0.106526 0.4479226,0.361807 0.5069122,0.558697 0.1385801,0.462539 -0.051426,0.901654 -0.4921466,1.13738 -0.147695,0.079 -0.1995989,0.08285 -1.2177035,0.09031 -0.8638915,0.0063 -1.0974595,-0.0029 -1.2447737,-0.04897 z"
   id="path317" /></svg>
