<?xml version="1.0" encoding="UTF-8" standalone="no"?>
<!-- Generator: Adobe Illustrator 22.0.1, SVG Export Plug-In . SVG Version: 6.00 Build 0)  -->

<svg
   version="1.1"
   id="Layer_1"
   x="0px"
   y="0px"
   viewBox="0 0 30 30"
   style="enable-background:new 0 0 30 30;"
   xml:space="preserve"
   sodipodi:docname="partlyCloudy.svg"
   inkscape:version="1.2.2 (732a01da63, 2022-12-09)"
   xmlns:inkscape="http://www.inkscape.org/namespaces/inkscape"
   xmlns:sodipodi="http://sodipodi.sourceforge.net/DTD/sodipodi-0.dtd"
   xmlns="http://www.w3.org/2000/svg"
   xmlns:svg="http://www.w3.org/2000/svg"><defs
   id="defs7" /><sodipodi:namedview
   id="namedview5"
   pagecolor="#ffffff"
   bordercolor="#000000"
   borderopacity="0.25"
   inkscape:showpageshadow="2"
   inkscape:pageopacity="0.0"
   inkscape:pagecheckerboard="0"
   inkscape:deskcolor="#d1d1d1"
   showgrid="false"
   inkscape:zoom="26.8"
   inkscape:cx="14.104478"
   inkscape:cy="15"
   inkscape:window-width="1920"
   inkscape:window-height="991"
   inkscape:window-x="-9"
   inkscape:window-y="-9"
   inkscape:window-maximized="1"
   inkscape:current-layer="Layer_1" />
<path
   d="M6.77,19.61c0,0.97,0.35,1.81,1.06,2.52c0.71,0.71,1.55,1.06,2.52,1.06h6.85c0.97,0,1.8-0.35,2.49-1.05  c0.69-0.7,1.04-1.54,1.04-2.53c0-0.48-0.07-0.89-0.21-1.23c0.83-0.53,1.49-1.24,1.97-2.12c0.48-0.88,0.73-1.83,0.73-2.84  c0-0.81-0.16-1.59-0.47-2.33c-0.32-0.74-0.74-1.38-1.28-1.91S20.3,8.22,19.56,7.9c-0.74-0.32-1.51-0.48-2.32-0.48  c-1.09,0-2.1,0.27-3.02,0.81s-1.65,1.27-2.18,2.18c-0.53,0.92-0.79,1.92-0.79,3.01v0.34c-1.01,0.57-1.67,1.41-1.99,2.49  c-0.76,0.24-1.36,0.66-1.81,1.27C7,18.13,6.77,18.83,6.77,19.61z M8.75,19.61c0-0.42,0.13-0.78,0.4-1.08  c0.27-0.3,0.61-0.47,1.02-0.51l0.63-0.08c0.12,0,0.19-0.08,0.19-0.23l0.1-0.56c0.07-0.58,0.31-1.06,0.73-1.44  c0.42-0.39,0.91-0.58,1.48-0.58c0.58,0,1.09,0.19,1.51,0.58c0.43,0.39,0.68,0.87,0.75,1.44l0.08,0.65c0.06,0.15,0.15,0.23,0.25,0.23  h1.31c0.43,0,0.8,0.16,1.12,0.47c0.32,0.31,0.47,0.68,0.47,1.12c0,0.45-0.16,0.83-0.47,1.15s-0.69,0.48-1.12,0.48h-6.85  c-0.45,0-0.83-0.16-1.14-0.48S8.75,20.06,8.75,19.61z M13.18,13.22c0.07-1.09,0.49-2.01,1.27-2.76c0.78-0.74,1.71-1.12,2.8-1.12  c1.11,0,2.06,0.4,2.84,1.19c0.78,0.79,1.17,1.76,1.17,2.89c0,0.7-0.17,1.35-0.51,1.95c-0.34,0.6-0.8,1.08-1.38,1.45  c-0.59-0.49-1.27-0.73-2.03-0.73c-0.29-0.88-0.81-1.57-1.54-2.09c-0.73-0.52-1.56-0.78-2.49-0.78H13.18z"
   id="path2" />
<path
   style="fill:#ffffff;stroke:#ffffff;stroke-width:0.0373134"
   d="M 10.018657,23.1514 C 8.8017935,23.042079 7.7184013,22.276466 7.1322403,21.111623 c -0.4466465,-0.887595 -0.4466465,-2.119233 0,-3.006828 0.3022356,-0.600615 0.7065628,-1.06559 1.2155125,-1.397836 0.2549859,-0.166456 0.7857613,-0.419646 0.8797282,-0.419646 0.019199,0 0.072804,-0.104944 0.1191219,-0.233209 0.3124939,-0.86537 0.8467651,-1.562681 1.5775561,-2.058967 0.231726,-0.157367 0.326063,-0.243588 0.32661,-0.298508 0.0038,-0.380638 0.08623,-1.243317 0.146308,-1.531026 0.3956,-1.894408 1.754776,-3.5262639 3.561795,-4.2763659 2.051377,-0.851536 4.380503,-0.4730559 6.150851,0.9995058 0.972581,0.8089848 1.674612,2.0013091 1.975998,3.3560171 0.06994,0.314364 0.08179,0.482578 0.08243,1.169419 6.39e-4,0.69017 -0.01063,0.853105 -0.08066,1.166362 -0.175624,0.785548 -0.50342,1.544725 -0.954447,2.210504 -0.349299,0.515615 -1.017854,1.162729 -1.622594,1.570556 -0.0066,0.0044 0.02216,0.118448 0.06383,0.253376 0.151004,0.488894 0.170891,1.273182 0.046,1.814127 -0.152757,0.661649 -0.487191,1.238658 -1.018798,1.757759 -0.603922,0.589715 -1.265136,0.888431 -2.138794,0.966241 -0.478688,0.04263 -6.967034,0.04115 -7.44403,-0.0017 z m 7.854477,-2.029496 c 0.991604,-0.484722 1.239621,-1.856494 0.473178,-2.617123 -0.421959,-0.418759 -0.711938,-0.50105 -1.765622,-0.50105 h -0.773035 l -0.0726,-0.0923 c -0.05042,-0.06409 -0.08626,-0.203787 -0.117282,-0.45709 -0.104354,-0.852041 -0.259357,-1.209805 -0.725303,-1.674075 -0.480717,-0.478989 -0.898962,-0.648454 -1.602305,-0.649225 -0.333417,-3.73e-4 -0.452714,0.01595 -0.683874,0.09355 -0.3343,0.112221 -0.598847,0.275041 -0.859699,0.529118 -0.397672,0.387345 -0.57853,0.794467 -0.717025,1.614062 -0.0432,0.255632 -0.0949,0.481144 -0.114889,0.501136 -0.01999,0.01999 -0.242369,0.06482 -0.494169,0.09961 -0.2518,0.03479 -0.5289646,0.08272 -0.6159209,0.106515 -0.2581738,0.07063 -0.6029276,0.332585 -0.7818867,0.594094 -0.2230388,0.325922 -0.2841692,0.561748 -0.2664421,1.027871 0.012483,0.328222 0.029682,0.410236 0.1314606,0.626867 0.1912196,0.407001 0.566586,0.75016 0.9538372,0.871997 0.1285332,0.04044 0.8805099,0.04849 3.9830739,0.04266 l 3.824627,-0.0072 z m 1.885669,-4.556812 c 0.454118,-0.347148 0.879409,-0.892186 1.153954,-1.478868 0.383114,-0.818685 0.467465,-1.835638 0.228986,-2.76068 -0.287988,-1.117085 -1.089744,-2.090056 -2.149206,-2.6081711 -1.612302,-0.7884736 -3.648518,-0.3649398 -4.816647,1.0018651 -0.577416,0.675624 -0.890366,1.397021 -1.000939,2.307322 l -0.02317,0.190739 0.364407,0.02656 c 0.945762,0.06893 1.676315,0.33127 2.36345,0.848703 0.639617,0.481652 1.061042,1.051585 1.409036,1.905572 0.03204,0.07863 0.06702,0.102612 0.149666,0.102612 0.222742,0 0.768389,0.117349 1.049221,0.22565 0.160084,0.06174 0.423147,0.20191 0.584586,0.3115 0.334,0.226732 0.288509,0.231555 0.686654,-0.0728 z"
   id="path370" /></svg>
