<?xml version="1.0" encoding="UTF-8" standalone="no"?>
<!-- Generator: Adobe Illustrator 22.0.1, SVG Export Plug-In . SVG Version: 6.00 Build 0)  -->

<svg
   version="1.1"
   id="Layer_1"
   x="0px"
   y="0px"
   viewBox="0 0 30 30"
   style="enable-background:new 0 0 30 30;"
   xml:space="preserve"
   sodipodi:docname="raining.svg"
   inkscape:version="1.2.2 (732a01da63, 2022-12-09)"
   xmlns:inkscape="http://www.inkscape.org/namespaces/inkscape"
   xmlns:sodipodi="http://sodipodi.sourceforge.net/DTD/sodipodi-0.dtd"
   xmlns="http://www.w3.org/2000/svg"
   xmlns:svg="http://www.w3.org/2000/svg"><defs
   id="defs7" /><sodipodi:namedview
   id="namedview5"
   pagecolor="#ffffff"
   bordercolor="#000000"
   borderopacity="0.25"
   inkscape:showpageshadow="2"
   inkscape:pageopacity="0.0"
   inkscape:pagecheckerboard="0"
   inkscape:deskcolor="#d1d1d1"
   showgrid="false"
   inkscape:zoom="26.8"
   inkscape:cx="14.104478"
   inkscape:cy="15"
   inkscape:window-width="1920"
   inkscape:window-height="991"
   inkscape:window-x="-9"
   inkscape:window-y="-9"
   inkscape:window-maximized="1"
   inkscape:current-layer="Layer_1" />
<path
   d="M4.64,16.91c0-1.15,0.36-2.17,1.08-3.07c0.72-0.9,1.63-1.47,2.73-1.73c0.31-1.36,1.02-2.48,2.11-3.36s2.34-1.31,3.75-1.31  c1.38,0,2.6,0.43,3.68,1.28c1.08,0.85,1.78,1.95,2.1,3.29h0.32c0.89,0,1.72,0.22,2.48,0.65s1.37,1.03,1.81,1.78  c0.44,0.75,0.67,1.58,0.67,2.47c0,0.88-0.21,1.69-0.63,2.44c-0.42,0.75-1,1.35-1.73,1.8c-0.73,0.45-1.53,0.69-2.4,0.71  c-0.13,0-0.2-0.06-0.2-0.17v-1.33c0-0.12,0.07-0.18,0.2-0.18c0.85-0.04,1.58-0.38,2.18-1.02s0.9-1.39,0.9-2.26s-0.33-1.62-0.98-2.26  s-1.42-0.96-2.31-0.96h-1.61c-0.12,0-0.18-0.06-0.18-0.17l-0.08-0.58c-0.11-1.08-0.58-1.99-1.39-2.71  c-0.82-0.73-1.76-1.09-2.85-1.09c-1.09,0-2.05,0.36-2.85,1.09c-0.81,0.73-1.26,1.63-1.36,2.71l-0.07,0.53c0,0.12-0.07,0.19-0.2,0.19  l-0.53,0.03c-0.83,0.1-1.53,0.46-2.1,1.07s-0.85,1.33-0.85,2.16c0,0.87,0.3,1.62,0.9,2.26s1.33,0.98,2.18,1.02  c0.11,0,0.17,0.06,0.17,0.18v1.33c0,0.11-0.06,0.17-0.17,0.17c-1.34-0.06-2.47-0.57-3.4-1.53S4.64,18.24,4.64,16.91z M9.99,23.6  c0-0.04,0.01-0.11,0.04-0.2l1.63-5.77c0.06-0.19,0.17-0.34,0.32-0.44c0.15-0.1,0.31-0.15,0.46-0.15c0.07,0,0.15,0.01,0.24,0.03  c0.24,0.04,0.42,0.17,0.54,0.37c0.12,0.2,0.15,0.42,0.08,0.67l-1.63,5.73c-0.12,0.43-0.4,0.64-0.82,0.64  c-0.04,0-0.07-0.01-0.11-0.02c-0.06-0.02-0.09-0.03-0.1-0.03c-0.22-0.06-0.38-0.17-0.49-0.33C10.04,23.93,9.99,23.77,9.99,23.6z   M12.61,26.41l2.44-8.77c0.04-0.19,0.14-0.34,0.3-0.44c0.16-0.1,0.32-0.15,0.49-0.15c0.09,0,0.18,0.01,0.27,0.03  c0.22,0.06,0.38,0.19,0.49,0.39c0.11,0.2,0.13,0.41,0.07,0.64l-2.43,8.78c-0.04,0.17-0.13,0.31-0.29,0.43  c-0.16,0.12-0.32,0.18-0.51,0.18c-0.09,0-0.18-0.02-0.25-0.05c-0.2-0.05-0.37-0.18-0.52-0.39C12.56,26.88,12.54,26.67,12.61,26.41z   M16.74,23.62c0-0.04,0.01-0.11,0.04-0.23l1.63-5.77c0.06-0.19,0.16-0.34,0.3-0.44c0.15-0.1,0.3-0.15,0.46-0.15  c0.08,0,0.17,0.01,0.26,0.03c0.21,0.06,0.36,0.16,0.46,0.31c0.1,0.15,0.15,0.31,0.15,0.47c0,0.03-0.01,0.08-0.02,0.14  s-0.02,0.1-0.02,0.12l-1.63,5.73c-0.04,0.19-0.13,0.35-0.28,0.46s-0.32,0.17-0.51,0.17l-0.24-0.05c-0.2-0.06-0.35-0.16-0.46-0.32  C16.79,23.94,16.74,23.78,16.74,23.62z"
   id="path2" />
<path
   style="fill:#ffffff;stroke:#ffffff;stroke-width:0.0373134"
   d="M 8.8246269,21.789638 C 6.7661906,21.464168 5.0945957,19.83997 4.7347278,17.815705 c -0.084867,-0.477379 -0.085213,-1.32665 -7.21e-4,-1.770929 0.2507573,-1.318544 1.0156911,-2.476704 2.1271539,-3.220648 0.4099643,-0.274405 0.676386,-0.402887 1.17432,-0.566316 l 0.4269376,-0.140128 0.085591,-0.29647 C 8.8751295,10.688139 9.4216716,9.8168722 10.322246,8.9928269 12.287193,7.1948555 15.286483,6.9486965 17.5,8.4037312 c 1.19066,0.7826689 1.985661,1.8043608 2.424513,3.1158508 0.0723,0.21607 0.131457,0.417646 0.131457,0.447947 0,0.04495 0.09791,0.05925 0.531717,0.07765 0.823654,0.03495 1.402646,0.185803 2.120557,0.552503 1.216505,0.621377 2.137027,1.763997 2.477827,3.075666 0.755624,2.908237 -1.239631,5.818098 -4.211113,6.141444 -0.263978,0.02873 -0.393473,0.02862 -0.457089,-3.73e-4 l -0.08877,-0.04043 v -0.7425 c 0,-0.549446 0.01213,-0.752093 0.04664,-0.779395 0.02565,-0.02029 0.19937,-0.05599 0.386038,-0.07933 0.417622,-0.05221 0.731951,-0.151648 1.097171,-0.347075 0.782956,-0.418955 1.416314,-1.213236 1.646223,-2.064493 0.11463,-0.424423 0.116738,-1.255454 0.0042,-1.665803 -0.313439,-1.143166 -1.357529,-2.122735 -2.516413,-2.360909 -0.221317,-0.04548 -0.522829,-0.05911 -1.308167,-0.05911 -0.758354,0 -1.036563,-0.01198 -1.082846,-0.04664 -0.04586,-0.03434 -0.08236,-0.190621 -0.138387,-0.592501 -0.100027,-0.717465 -0.191008,-1.054359 -0.40681,-1.506379 -0.530262,-1.110686 -1.591225,-1.9755566 -2.82096,-2.2995756 -0.300537,-0.079188 -0.412268,-0.088222 -1.063433,-0.085989 -0.667498,0.00229 -0.758367,0.010767 -1.09987,0.1026068 -0.980032,0.2635594 -1.905612,0.9370198 -2.462966,1.7920768 -0.371705,0.570246 -0.532219,1.045463 -0.653872,1.935852 -0.05142,0.376329 -0.096143,0.583923 -0.1316535,0.611073 -0.02958,0.02262 -0.2294549,0.05248 -0.4441672,0.06636 -0.8891328,0.05748 -1.6135871,0.381887 -2.230489,0.998788 -0.6739202,0.673921 -0.9519324,1.407559 -0.9157363,2.416511 0.01566,0.436511 0.03435,0.556404 0.1343044,0.861552 0.1541456,0.470586 0.3971415,0.874427 0.7458546,1.239556 0.5930501,0.620966 1.2346313,0.947918 2.0026249,1.020543 0.1691694,0.016 0.2776269,0.0454 0.3078358,0.08346 0.059093,0.07445 0.066132,1.393585 0.00802,1.502176 -0.04654,0.08696 -0.2273373,0.09074 -0.7076425,0.0148 z"
   id="path305" /><path
   style="fill:#ffffff;stroke:#ffffff;stroke-width:0.0373134"
   d="m 10.623947,24.404115 c -0.0878,-0.02742 -0.219736,-0.09569 -0.293194,-0.151719 -0.15379,-0.117302 -0.311199,-0.42532 -0.311732,-0.609999 -3.8e-4,-0.1318 1.598361,-5.853711 1.702289,-6.09251 0.03272,-0.07517 0.112164,-0.187662 0.17655,-0.249974 0.507783,-0.491428 1.404379,-0.14338 1.404379,0.545164 0,0.122048 -0.252876,1.07013 -0.784147,2.93992 -0.431281,1.517878 -0.817942,2.873067 -0.859248,3.01153 -0.157826,0.529057 -0.549668,0.759107 -1.034897,0.607588 z"
   id="path307" /><path
   style="fill:#ffffff;stroke:#ffffff;stroke-width:0.0373134"
   d="m 13.170254,27.421965 c -0.328293,-0.116564 -0.57697,-0.42829 -0.57697,-0.723253 0,-0.177846 2.475186,-9.107935 2.570291,-9.273212 0.185996,-0.323232 0.699044,-0.447372 1.07488,-0.260085 0.348964,0.173895 0.500835,0.517621 0.406946,0.921028 -0.11654,0.500732 -2.450923,8.882531 -2.500234,8.977305 -0.07423,0.142662 -0.201305,0.251945 -0.395167,0.339833 -0.194585,0.08822 -0.367615,0.0937 -0.579746,0.01838 z"
   id="path309" /><path
   style="fill:#ffffff;stroke:#ffffff;stroke-width:0.0373134"
   d="m 17.42357,24.398975 c -0.10162,-0.02677 -0.196773,-0.04941 -0.211451,-0.05031 -0.01468,-9.07e-4 -0.08868,-0.05607 -0.164439,-0.122596 -0.168084,-0.147579 -0.273378,-0.368099 -0.274472,-0.574835 -8.48e-4,-0.160123 1.631494,-6.009004 1.729729,-6.19783 0.26614,-0.511571 1.076213,-0.528026 1.385123,-0.02814 0.198125,0.320615 0.203895,0.292225 -0.720455,3.544884 -0.454904,1.600747 -0.864297,2.983822 -0.90976,3.073502 -0.150879,0.297617 -0.495736,0.444494 -0.834275,0.355324 z"
   id="path311" /></svg>
