<?xml version="1.0" encoding="UTF-8" standalone="no"?>
<!-- Generator: Adobe Illustrator 22.0.1, SVG Export Plug-In . SVG Version: 6.00 Build 0)  -->

<svg
   version="1.1"
   id="Layer_1"
   x="0px"
   y="0px"
   viewBox="0 0 30 30"
   style="enable-background:new 0 0 30 30;"
   xml:space="preserve"
   sodipodi:docname="snowy.svg"
   inkscape:version="1.2.2 (732a01da63, 2022-12-09)"
   xmlns:inkscape="http://www.inkscape.org/namespaces/inkscape"
   xmlns:sodipodi="http://sodipodi.sourceforge.net/DTD/sodipodi-0.dtd"
   xmlns="http://www.w3.org/2000/svg"
   xmlns:svg="http://www.w3.org/2000/svg"><defs
   id="defs7" /><sodipodi:namedview
   id="namedview5"
   pagecolor="#ffffff"
   bordercolor="#000000"
   borderopacity="0.25"
   inkscape:showpageshadow="2"
   inkscape:pageopacity="0.0"
   inkscape:pagecheckerboard="0"
   inkscape:deskcolor="#d1d1d1"
   showgrid="false"
   inkscape:zoom="26.8"
   inkscape:cx="14.104478"
   inkscape:cy="15"
   inkscape:window-width="1920"
   inkscape:window-height="991"
   inkscape:window-x="-9"
   inkscape:window-y="-9"
   inkscape:window-maximized="1"
   inkscape:current-layer="Layer_1" />
<path
   d="M4.64,16.95c0-1.16,0.35-2.18,1.06-3.08s1.62-1.48,2.74-1.76c0.31-1.36,1.01-2.48,2.1-3.36s2.34-1.31,3.75-1.31  c1.38,0,2.6,0.43,3.68,1.28c1.08,0.85,1.78,1.95,2.1,3.29h0.32c0.89,0,1.72,0.22,2.48,0.66c0.76,0.44,1.37,1.04,1.81,1.8  c0.44,0.76,0.67,1.59,0.67,2.48c0,1.32-0.46,2.47-1.39,3.42c-0.92,0.96-2.05,1.46-3.38,1.5c-0.13,0-0.2-0.06-0.2-0.17v-1.33  c0-0.12,0.07-0.18,0.2-0.18c0.85-0.04,1.58-0.38,2.18-1.02s0.9-1.38,0.9-2.23c0-0.89-0.32-1.65-0.97-2.3s-1.42-0.97-2.32-0.97h-1.61  c-0.12,0-0.18-0.06-0.18-0.17l-0.08-0.58c-0.11-1.08-0.58-1.99-1.39-2.72c-0.82-0.73-1.76-1.1-2.85-1.1c-1.1,0-2.05,0.37-2.86,1.11  c-0.81,0.74-1.27,1.65-1.37,2.75l-0.06,0.5c0,0.12-0.07,0.19-0.2,0.19l-0.53,0.07c-0.83,0.07-1.53,0.41-2.1,1.04  s-0.85,1.35-0.85,2.19c0,0.85,0.3,1.59,0.9,2.23s1.33,0.97,2.18,1.02c0.11,0,0.17,0.06,0.17,0.18v1.33c0,0.11-0.06,0.17-0.17,0.17  c-1.34-0.04-2.47-0.54-3.4-1.5C5.1,19.42,4.64,18.27,4.64,16.95z M10.14,24.65c0-0.23,0.08-0.43,0.25-0.6  c0.16-0.15,0.35-0.23,0.57-0.23c0.23,0,0.43,0.08,0.59,0.23s0.24,0.35,0.24,0.59c0,0.24-0.08,0.43-0.24,0.59  c-0.16,0.16-0.35,0.23-0.59,0.23c-0.23,0-0.43-0.08-0.59-0.23C10.22,25.08,10.14,24.88,10.14,24.65z M11,21.02  c0-0.22,0.08-0.42,0.24-0.58c0.16-0.16,0.35-0.24,0.59-0.24c0.23,0,0.43,0.08,0.59,0.24c0.16,0.16,0.24,0.36,0.24,0.58  c0,0.24-0.08,0.44-0.24,0.6c-0.16,0.17-0.35,0.25-0.59,0.25c-0.23,0-0.43-0.08-0.59-0.25C11.08,21.46,11,21.26,11,21.02z   M12.9,26.61c0-0.23,0.08-0.43,0.25-0.61c0.16-0.16,0.35-0.24,0.57-0.24c0.24,0,0.44,0.08,0.61,0.25c0.17,0.17,0.25,0.37,0.25,0.6  s-0.08,0.43-0.25,0.59c-0.17,0.16-0.37,0.24-0.61,0.24c-0.23,0-0.42-0.08-0.58-0.24C12.99,27.03,12.9,26.84,12.9,26.61z   M13.77,22.95c0-0.24,0.08-0.44,0.24-0.62c0.16-0.16,0.36-0.24,0.58-0.24c0.23,0,0.43,0.08,0.6,0.25c0.17,0.17,0.25,0.37,0.25,0.61  c0,0.23-0.08,0.43-0.25,0.6s-0.37,0.25-0.6,0.25c-0.23,0-0.42-0.08-0.58-0.25C13.85,23.38,13.77,23.18,13.77,22.95z M14.19,19.33  c0-0.23,0.08-0.43,0.25-0.6c0.18-0.16,0.37-0.24,0.57-0.24c0.24,0,0.44,0.08,0.61,0.25c0.17,0.17,0.25,0.36,0.25,0.6  c0,0.23-0.08,0.43-0.25,0.59c-0.17,0.16-0.37,0.24-0.61,0.24c-0.23,0-0.42-0.08-0.58-0.24C14.27,19.76,14.19,19.56,14.19,19.33z   M16.56,24.65c0-0.23,0.08-0.43,0.24-0.6c0.16-0.15,0.36-0.23,0.6-0.23c0.24,0,0.43,0.08,0.59,0.23c0.16,0.16,0.23,0.35,0.23,0.59  c0,0.24-0.08,0.43-0.23,0.59c-0.16,0.16-0.35,0.23-0.59,0.23c-0.24,0-0.44-0.08-0.6-0.24C16.64,25.07,16.56,24.88,16.56,24.65z   M17.41,21.02c0-0.22,0.08-0.41,0.25-0.58c0.17-0.17,0.37-0.25,0.6-0.25c0.23,0,0.43,0.08,0.59,0.24c0.16,0.16,0.24,0.36,0.24,0.58  c0,0.24-0.08,0.44-0.24,0.6c-0.16,0.17-0.35,0.25-0.59,0.25c-0.24,0-0.44-0.08-0.6-0.25C17.5,21.45,17.41,21.25,17.41,21.02z"
   id="path2" />
<path
   style="fill:#00ffff;stroke:#ffffff;stroke-width:0.0373134"
   d="M 8.8432836,21.821864 C 6.8012124,21.567026 5.1293979,19.951321 4.7381211,17.854478 c -0.088005,-0.471619 -0.089931,-1.312152 -0.0041,-1.789586 0.17662,-0.982441 0.6491974,-1.875553 1.3846267,-2.616771 0.5683114,-0.572785 1.1910596,-0.955574 1.9502536,-1.198777 l 0.3823351,-0.122478 0.038766,-0.149254 C 8.5624065,11.698853 8.7566551,11.157715 8.8819753,10.885654 9.6321454,9.2570941 11.23283,7.9770962 13.000633,7.5921416 c 0.785609,-0.1710734 1.762341,-0.170448 2.552431,0.00163 1.131519,0.2464456 2.200421,0.8533828 3.030873,1.720971 0.643351,0.6721191 1.045861,1.3552814 1.341025,2.2760564 l 0.138514,0.432099 0.527963,0.02264 c 0.766713,0.03288 1.324115,0.172914 1.97397,0.495922 1.00223,0.498154 1.778099,1.276281 2.263743,2.270332 0.743578,1.522003 0.640871,3.373097 -0.264402,4.765349 -0.585793,0.900914 -1.506598,1.646187 -2.456542,1.988255 -0.563415,0.202881 -1.537136,0.346641 -1.659581,0.245021 -0.08115,-0.06735 -0.08466,-1.460106 -0.0039,-1.540885 0.02913,-0.02913 0.16442,-0.06337 0.300652,-0.07609 0.349853,-0.03267 0.703603,-0.126346 1.014846,-0.26874 0.841519,-0.384996 1.549201,-1.21432 1.804309,-2.114447 0.09848,-0.347478 0.134868,-0.999927 0.07661,-1.373694 -0.157392,-1.009843 -0.816992,-1.915971 -1.763409,-2.422492 -0.568616,-0.304321 -1.01285,-0.376015 -2.329881,-0.376015 -0.76193,0 -0.905126,-0.0086 -0.923035,-0.05524 -0.01166,-0.03038 -0.05639,-0.311634 -0.09941,-0.625 -0.157078,-1.144304 -0.51612,-1.898669 -1.247946,-2.621997 -0.798342,-0.7890721 -1.731216,-1.1961017 -2.837192,-1.237919 -1.318916,-0.049869 -2.372231,0.3781651 -3.284252,1.334615 -0.703422,0.73769 -1.012885,1.440773 -1.1563565,2.627184 -0.039096,0.323295 -0.07671,0.498806 -0.112781,0.526246 -0.029767,0.02264 -0.2347821,0.06171 -0.4555903,0.0868 -0.5266657,0.05986 -0.9579298,0.161601 -1.2539487,0.295822 -0.687336,0.311653 -1.2706551,0.89831 -1.6120907,1.621314 -0.2183078,0.462275 -0.2593099,0.678753 -0.2593099,1.36907 0,0.541696 0.010509,0.649139 0.087463,0.894208 0.1762478,0.56128 0.4667185,1.029658 0.9032905,1.456538 0.5017439,0.490606 1.2090455,0.829054 1.8449212,0.882805 0.1677713,0.01418 0.3080187,0.04607 0.3390362,0.07709 0.041845,0.04184 0.052901,0.197124 0.052901,0.742987 0,0.404338 -0.015994,0.719972 -0.038626,0.76226 -0.032822,0.06133 -0.07628,0.07133 -0.2891791,0.06658 -0.1378041,-0.0031 -0.3009262,-0.01188 -0.3624933,-0.01956 z"
   id="path305" /><path
   style="fill:#00ffff;stroke:#ffffff;stroke-width:0.0373134"
   d="m 11.482369,21.770121 c -0.414671,-0.210661 -0.569956,-0.687738 -0.3606,-1.107861 0.245773,-0.493201 0.897745,-0.590371 1.284842,-0.191494 0.179886,0.18536 0.236919,0.351302 0.216719,0.63056 -0.01891,0.26151 -0.144989,0.473351 -0.370536,0.62261 -0.212698,0.140757 -0.545049,0.160681 -0.770425,0.04619 z"
   id="path307" /><path
   style="fill:#00ffff;stroke:#ffffff;stroke-width:0.0373134"
   d="m 14.850746,20.132441 c -0.392135,-0.09344 -0.62816,-0.396389 -0.629128,-0.807523 -7.25e-4,-0.30776 0.128453,-0.531544 0.397619,-0.68882 0.172519,-0.100805 0.221729,-0.112132 0.440857,-0.101471 0.193375,0.0094 0.27996,0.03404 0.400801,0.114005 0.447786,0.296331 0.511034,0.909901 0.130209,1.263153 -0.203199,0.188486 -0.501834,0.277491 -0.740358,0.220656 z"
   id="path309" /><path
   style="fill:#00ffff;stroke:#ffffff;stroke-width:0.0373134"
   d="m 17.98973,21.792197 c -0.306553,-0.10927 -0.5457,-0.44487 -0.5457,-0.76579 0,-0.232386 0.065,-0.39119 0.226492,-0.553353 0.231108,-0.232067 0.514391,-0.31196 0.81867,-0.230886 0.243101,0.06477 0.500509,0.339431 0.554632,0.591799 0.06789,0.316555 -0.0339,0.617884 -0.276184,0.817594 -0.228636,0.188461 -0.504051,0.238253 -0.77791,0.140636 z"
   id="path311" /><path
   style="fill:#00ffff;stroke:#ffffff;stroke-width:0.0373134"
   d="m 14.328358,23.73385 c -0.198632,-0.07247 -0.442693,-0.3442 -0.503173,-0.560214 -0.173255,-0.618809 0.380733,-1.198207 0.984128,-1.029267 0.519145,0.145352 0.767551,0.763954 0.488208,1.21578 -0.20834,0.336982 -0.62717,0.49848 -0.969163,0.373701 z"
   id="path313" /><path
   style="fill:#00ffff;stroke:#ffffff;stroke-width:0.0373134"
   d="m 17.052239,25.358363 c -0.415444,-0.192344 -0.574458,-0.647137 -0.375599,-1.074245 0.291031,-0.625075 1.261469,-0.569529 1.477337,0.08456 0.07385,0.223754 0.03065,0.550502 -0.09667,0.731263 -0.215831,0.306419 -0.656612,0.419752 -1.005068,0.258422 z"
   id="path315" /><path
   style="fill:#00ffff;stroke:#ffffff;stroke-width:0.0373134"
   d="m 13.395522,27.348157 c -0.28822,-0.149594 -0.464779,-0.432101 -0.464779,-0.743679 0,-0.239297 0.09706,-0.450016 0.285574,-0.619968 0.30656,-0.27638 0.769567,-0.26606 1.068031,0.0238 0.196205,0.190552 0.261387,0.33726 0.264875,0.596164 0.0061,0.454629 -0.347669,0.801406 -0.81788,0.801658 -0.130075,7.1e-5 -0.270783,-0.02422 -0.335821,-0.05798 z"
   id="path317" /><path
   style="fill:#00ffff;stroke:#ffffff;stroke-width:0.0373134"
   d="m 10.574899,25.342285 c -0.375579,-0.198283 -0.512347,-0.648572 -0.31778,-1.046251 0.292495,-0.597838 1.12533,-0.604932 1.42075,-0.0121 0.201637,0.404633 0.0479,0.8659 -0.357551,1.072743 -0.203978,0.104062 -0.533085,0.09771 -0.745419,-0.01439 z"
   id="path319" /></svg>
