<?xml version="1.0" encoding="UTF-8" standalone="no"?>
<!-- Generator: Adobe Illustrator 22.0.1, SVG Export Plug-In . SVG Version: 6.00 Build 0)  -->

<svg
   version="1.1"
   id="Layer_1"
   x="0px"
   y="0px"
   viewBox="0 0 30 30"
   style="enable-background:new 0 0 30 30;"
   xml:space="preserve"
   sodipodi:docname="sunshine.svg"
   inkscape:version="1.2.2 (732a01da63, 2022-12-09)"
   xmlns:inkscape="http://www.inkscape.org/namespaces/inkscape"
   xmlns:sodipodi="http://sodipodi.sourceforge.net/DTD/sodipodi-0.dtd"
   xmlns="http://www.w3.org/2000/svg"
   xmlns:svg="http://www.w3.org/2000/svg"><defs
   id="defs7" /><sodipodi:namedview
   id="namedview5"
   pagecolor="#ffffff"
   bordercolor="#000000"
   borderopacity="0.25"
   inkscape:showpageshadow="2"
   inkscape:pageopacity="0.0"
   inkscape:pagecheckerboard="0"
   inkscape:deskcolor="#d1d1d1"
   showgrid="false"
   inkscape:zoom="26.8"
   inkscape:cx="14.104478"
   inkscape:cy="15"
   inkscape:window-width="1920"
   inkscape:window-height="991"
   inkscape:window-x="-9"
   inkscape:window-y="-9"
   inkscape:window-maximized="1"
   inkscape:current-layer="Layer_1" />
<path
   d="M4.37,14.62c0-0.24,0.08-0.45,0.25-0.62c0.17-0.16,0.38-0.24,0.6-0.24h2.04c0.23,0,0.42,0.08,0.58,0.25  c0.15,0.17,0.23,0.37,0.23,0.61S8,15.06,7.85,15.23c-0.15,0.17-0.35,0.25-0.58,0.25H5.23c-0.23,0-0.43-0.08-0.6-0.25  C4.46,15.06,4.37,14.86,4.37,14.62z M7.23,21.55c0-0.23,0.08-0.43,0.23-0.61l1.47-1.43c0.15-0.16,0.35-0.23,0.59-0.23  c0.24,0,0.44,0.08,0.6,0.23s0.24,0.34,0.24,0.57c0,0.24-0.08,0.46-0.24,0.64L8.7,22.14c-0.41,0.32-0.82,0.32-1.23,0  C7.31,21.98,7.23,21.78,7.23,21.55z M7.23,7.71c0-0.23,0.08-0.43,0.23-0.61C7.66,6.93,7.87,6.85,8.1,6.85  c0.22,0,0.42,0.08,0.59,0.24l1.43,1.47c0.16,0.15,0.24,0.35,0.24,0.59c0,0.24-0.08,0.44-0.24,0.6s-0.36,0.24-0.6,0.24  c-0.24,0-0.44-0.08-0.59-0.24L7.47,8.32C7.31,8.16,7.23,7.95,7.23,7.71z M9.78,14.62c0-0.93,0.23-1.8,0.7-2.6s1.1-1.44,1.91-1.91  s1.67-0.7,2.6-0.7c0.7,0,1.37,0.14,2.02,0.42c0.64,0.28,1.2,0.65,1.66,1.12c0.47,0.47,0.84,1.02,1.11,1.66  c0.27,0.64,0.41,1.32,0.41,2.02c0,0.94-0.23,1.81-0.7,2.61c-0.47,0.8-1.1,1.43-1.9,1.9c-0.8,0.47-1.67,0.7-2.61,0.7  s-1.81-0.23-2.61-0.7c-0.8-0.47-1.43-1.1-1.9-1.9C10.02,16.43,9.78,15.56,9.78,14.62z M11.48,14.62c0,0.98,0.34,1.81,1.03,2.5  c0.68,0.69,1.51,1.04,2.49,1.04s1.81-0.35,2.5-1.04s1.04-1.52,1.04-2.5c0-0.96-0.35-1.78-1.04-2.47c-0.69-0.68-1.52-1.02-2.5-1.02  c-0.97,0-1.8,0.34-2.48,1.02C11.82,12.84,11.48,13.66,11.48,14.62z M14.14,22.4c0-0.24,0.08-0.44,0.25-0.6s0.37-0.24,0.6-0.24  c0.24,0,0.45,0.08,0.61,0.24s0.24,0.36,0.24,0.6v1.99c0,0.24-0.08,0.45-0.25,0.62c-0.17,0.17-0.37,0.25-0.6,0.25  s-0.44-0.08-0.6-0.25c-0.17-0.17-0.25-0.38-0.25-0.62V22.4z M14.14,6.9V4.86c0-0.23,0.08-0.43,0.25-0.6C14.56,4.09,14.76,4,15,4  s0.43,0.08,0.6,0.25c0.17,0.17,0.25,0.37,0.25,0.6V6.9c0,0.23-0.08,0.42-0.25,0.58S15.23,7.71,15,7.71s-0.44-0.08-0.6-0.23  S14.14,7.13,14.14,6.9z M19.66,20.08c0-0.23,0.08-0.42,0.23-0.56c0.15-0.16,0.34-0.23,0.56-0.23c0.24,0,0.44,0.08,0.6,0.23  l1.46,1.43c0.16,0.17,0.24,0.38,0.24,0.61c0,0.23-0.08,0.43-0.24,0.59c-0.4,0.31-0.8,0.31-1.2,0l-1.42-1.42  C19.74,20.55,19.66,20.34,19.66,20.08z M19.66,9.16c0-0.25,0.08-0.45,0.23-0.59l1.42-1.47c0.17-0.16,0.37-0.24,0.59-0.24  c0.24,0,0.44,0.08,0.6,0.25c0.17,0.17,0.25,0.37,0.25,0.6c0,0.25-0.08,0.46-0.24,0.62l-1.46,1.43c-0.18,0.16-0.38,0.24-0.6,0.24  c-0.23,0-0.41-0.08-0.56-0.24S19.66,9.4,19.66,9.16z M21.92,14.62c0-0.24,0.08-0.44,0.24-0.62c0.16-0.16,0.35-0.24,0.57-0.24h2.02  c0.23,0,0.43,0.09,0.6,0.26c0.17,0.17,0.26,0.37,0.26,0.6s-0.09,0.43-0.26,0.6c-0.17,0.17-0.37,0.25-0.6,0.25h-2.02  c-0.23,0-0.43-0.08-0.58-0.25S21.92,14.86,21.92,14.62z"
   id="path2" />
<path
   style="fill:#ffffff;stroke:#ffffff;stroke-width:0.0373134"
   d="M 4.9770549,15.41494 C 4.7677771,15.340152 4.6178799,15.216309 4.505741,15.025547 4.4214819,14.882212 4.4032114,14.807088 4.4042424,14.608209 c 0.00137,-0.264309 0.055368,-0.400231 0.228487,-0.575146 0.2344259,-0.236857 0.2815382,-0.244027 1.6094287,-0.24493 1.1231298,-7.64e-4 1.2145483,0.0041 1.3479183,0.07217 0.286164,0.14599 0.4509684,0.428201 0.4509684,0.772239 0,0.370158 -0.2324947,0.706326 -0.5493532,0.794318 -0.2138556,0.05939 -2.3433418,0.04929 -2.5146367,-0.01192 z"
   id="path305" /><path
   style="fill:#ffffff;stroke:#ffffff;stroke-width:0.0373134"
   d="m 14.428761,19.794344 c -0.374895,-0.03906 -0.994758,-0.190298 -1.317514,-0.321445 -1.679314,-0.682367 -2.828184,-2.05312 -3.2113307,-3.83154 -0.1150605,-0.534068 -0.1161179,-1.523738 -0.00218,-2.040613 0.2205847,-1.000678 0.6665177,-1.835025 1.3756227,-2.573812 1.486678,-1.5489068 3.734097,-2.01894 5.685596,-1.1891062 0.667403,0.2837992 1.163823,0.6187472 1.686149,1.1376912 0.728034,0.723321 1.20704,1.623582 1.436524,2.699854 0.09411,0.441359 0.09357,1.491981 -9.85e-4,1.940299 -0.439509,2.083789 -2.038784,3.689886 -4.084807,4.10223 -0.430607,0.08678 -1.137104,0.121245 -1.567075,0.07644 z m 0.990206,-1.644194 c 0.839442,-0.0936 1.550143,-0.449321 2.14493,-1.073572 0.462657,-0.485576 0.742872,-0.986186 0.894989,-1.598916 0.115909,-0.466882 0.115401,-1.235587 -0.0011,-1.709005 -0.108115,-0.439229 -0.356188,-0.934656 -0.655034,-1.308167 -0.517416,-0.64669 -1.162803,-1.060892 -1.955076,-1.254747 -0.461656,-0.112959 -1.236205,-0.112313 -1.701265,0.0014 -1.344667,0.328842 -2.420867,1.479206 -2.636945,2.818664 -0.05848,0.362498 -0.02662,1.190271 0.05832,1.51522 0.09415,0.360212 0.367831,0.915706 0.601445,1.220776 0.686107,0.895969 1.624069,1.37856 2.766972,1.423636 0.06751,0.0027 0.284765,-0.01322 0.482795,-0.03531 z"
   id="path307" /><path
   style="fill:#ffffff;stroke:#ffffff;stroke-width:0.0373134"
   d="M 9.2680997,9.9319992 C 9.0548262,9.8524091 8.9650768,9.7734301 8.1295432,8.9300753 7.2656362,8.0580815 7.2368915,8.0148701 7.2647292,7.6300172 7.2836666,7.3682111 7.4097532,7.1566439 7.6361203,7.0068412 7.8464264,6.8676672 8.2215626,6.8416537 8.4365569,6.9513356 c 0.083074,0.042381 0.5050615,0.4390675 0.9746727,0.9162341 0.7711684,0.7835759 0.8322724,0.855606 0.8877754,1.0465287 0.08527,0.2933037 0.02067,0.577213 -0.182101,0.8003538 -0.1910454,0.2102384 -0.5926032,0.3131568 -0.8488043,0.217547 z"
   id="path309" /><path
   style="fill:#ffffff;stroke:#ffffff;stroke-width:0.0373134"
   d="M 14.813433,7.6717221 C 14.524851,7.5978866 14.271138,7.3699932 14.19715,7.118156 14.16964,7.024518 14.159739,6.584329 14.167482,5.7992238 l 0.01162,-1.1783882 0.112927,-0.1825657 c 0.340113,-0.5498524 1.07581,-0.5498571 1.415938,-9.1e-6 l 0.112927,0.1825567 0.01128,1.1671516 c 0.0074,0.7633371 -0.0028,1.2196236 -0.02956,1.3188125 -0.10365,0.3849275 -0.595305,0.6657184 -0.98919,0.5649405 z"
   id="path311" /><path
   style="fill:#ffffff;stroke:#ffffff;stroke-width:0.0373134"
   d="M 20.146614,9.912805 C 19.958543,9.8247981 19.768723,9.6005222 19.71512,9.4029851 19.66284,9.2103195 19.69647,8.8875367 19.78294,8.7520309 c 0.03729,-0.05844 0.420418,-0.4716488 0.851388,-0.918241 0.835355,-0.8656349 0.943719,-0.9471871 1.260527,-0.9486421 0.321187,-0.00148 0.587667,0.1646348 0.746933,0.4655985 0.106759,0.2017419 0.105364,0.5396084 -0.0031,0.7503886 -0.09869,0.1917826 -1.6404,1.7000587 -1.830744,1.7910382 -0.203128,0.09709 -0.479514,0.1057125 -0.661332,0.020632 z"
   id="path313" /><path
   style="fill:#ffffff;stroke:#ffffff;stroke-width:0.0373134"
   d="m 22.574627,15.432736 c -0.396643,-0.100844 -0.621558,-0.399961 -0.622618,-0.828028 -5.85e-4,-0.236269 0.08759,-0.442927 0.255395,-0.598583 0.234981,-0.217967 0.241417,-0.218883 1.531415,-0.217992 1.340664,9.26e-4 1.366756,0.0055 1.620484,0.286979 0.361951,0.401473 0.268878,0.964725 -0.208178,1.259826 l -0.182388,0.112823 -1.141085,0.0067 c -0.627597,0.0037 -1.191458,-0.0061 -1.253025,-0.02174 z"
   id="path315" /><path
   style="fill:#ffffff;stroke:#ffffff;stroke-width:0.0373134"
   d="m 21.623134,22.307337 c -0.133946,-0.04819 -0.328943,-0.219731 -0.96402,-0.848053 -0.43786,-0.433203 -0.827807,-0.849068 -0.866548,-0.924143 -0.09196,-0.178196 -0.125011,-0.396461 -0.09269,-0.612008 0.03285,-0.219045 0.251943,-0.469794 0.489889,-0.560667 0.191494,-0.07313 0.462509,-0.05547 0.657107,0.04283 0.166059,0.08388 1.69753,1.605466 1.78158,1.770081 0.106035,0.207675 0.124718,0.392081 0.06169,0.608888 -0.12583,0.43284 -0.630361,0.680174 -1.067011,0.523076 z"
   id="path317" /><path
   style="fill:#ffffff;stroke:#ffffff;stroke-width:0.0373134"
   d="m 14.701493,25.188958 c -0.18478,-0.06727 -0.451089,-0.351647 -0.502434,-0.536514 -0.0542,-0.195132 -0.05089,-2.347167 0.0039,-2.510682 0.148777,-0.444359 0.702528,-0.682015 1.133227,-0.486352 0.160311,0.07283 0.370141,0.287131 0.438273,0.447616 0.05748,0.135385 0.08406,2.047993 0.03302,2.375817 -0.0483,0.310272 -0.168499,0.501165 -0.401547,0.63774 -0.208633,0.122267 -0.488407,0.151013 -0.704398,0.07238 z"
   id="path319" /><path
   style="fill:#ffffff;stroke:#ffffff;stroke-width:0.0373134"
   d="m 7.8433834,22.315585 c -0.3898333,-0.139057 -0.5866033,-0.397851 -0.5851012,-0.76953 4.682e-4,-0.11586 0.03015,-0.266744 0.06925,-0.352025 0.086516,-0.1887 1.6726959,-1.756024 1.8536785,-1.831643 0.1887599,-0.07887 0.5230729,-0.06702 0.7137698,0.02529 0.4285115,0.207439 0.5723175,0.74942 0.3106585,1.170821 -0.03864,0.06223 -0.4281401,0.468157 -0.865558,0.902065 -0.7347747,0.728879 -0.8107302,0.793487 -0.9979731,0.848881 -0.2422511,0.07167 -0.3125946,0.07253 -0.4987248,0.0061 z"
   id="path321" /></svg>
