<?xml version="1.0" encoding="UTF-8" standalone="no"?>
<!-- Generator: Adobe Illustrator 22.0.1, SVG Export Plug-In . SVG Version: 6.00 Build 0)  -->

<svg
   version="1.1"
   id="Layer_1"
   x="0px"
   y="0px"
   viewBox="0 0 30 30"
   style="enable-background:new 0 0 30 30;"
   xml:space="preserve"
   sodipodi:docname="thunder.svg"
   inkscape:version="1.2.2 (732a01da63, 2022-12-09)"
   xmlns:inkscape="http://www.inkscape.org/namespaces/inkscape"
   xmlns:sodipodi="http://sodipodi.sourceforge.net/DTD/sodipodi-0.dtd"
   xmlns="http://www.w3.org/2000/svg"
   xmlns:svg="http://www.w3.org/2000/svg"><defs
   id="defs7" /><sodipodi:namedview
   id="namedview5"
   pagecolor="#ffffff"
   bordercolor="#000000"
   borderopacity="0.25"
   inkscape:showpageshadow="2"
   inkscape:pageopacity="0.0"
   inkscape:pagecheckerboard="0"
   inkscape:deskcolor="#d1d1d1"
   showgrid="false"
   inkscape:zoom="26.8"
   inkscape:cx="14.104478"
   inkscape:cy="15"
   inkscape:window-width="1920"
   inkscape:window-height="991"
   inkscape:window-x="-9"
   inkscape:window-y="-9"
   inkscape:window-maximized="1"
   inkscape:current-layer="Layer_1" />
<path
   d="M4.63,16.91c0,1.11,0.33,2.1,0.99,2.97s1.52,1.47,2.58,1.79l-0.66,1.68c-0.03,0.14,0.02,0.22,0.14,0.22h2.13l-0.98,4.3h0.28  l3.92-5.75c0.04-0.04,0.04-0.09,0.01-0.14c-0.03-0.05-0.08-0.07-0.15-0.07h-2.18l2.48-4.64c0.07-0.14,0.02-0.22-0.14-0.22h-2.94  c-0.09,0-0.17,0.05-0.23,0.15l-1.07,2.87c-0.71-0.18-1.3-0.57-1.77-1.16c-0.47-0.59-0.7-1.26-0.7-2.01c0-0.83,0.28-1.55,0.85-2.17  c0.57-0.61,1.27-0.97,2.1-1.07l0.53-0.07c0.13,0,0.2-0.06,0.2-0.18l0.07-0.51c0.11-1.08,0.56-1.99,1.37-2.72  c0.81-0.73,1.76-1.1,2.85-1.1c1.09,0,2.04,0.37,2.85,1.1c0.82,0.73,1.28,1.64,1.4,2.72l0.07,0.58c0,0.11,0.06,0.17,0.18,0.17h1.6  c0.91,0,1.68,0.32,2.32,0.95c0.64,0.63,0.97,1.4,0.97,2.28c0,0.85-0.3,1.59-0.89,2.21c-0.59,0.62-1.33,0.97-2.2,1.04  c-0.13,0-0.2,0.06-0.2,0.18v1.37c0,0.11,0.07,0.17,0.2,0.17c1.33-0.04,2.46-0.55,3.39-1.51s1.39-2.11,1.39-3.45  c0-0.9-0.22-1.73-0.67-2.49c-0.44-0.76-1.05-1.36-1.81-1.8c-0.77-0.44-1.6-0.66-2.5-0.66H20.1c-0.33-1.33-1.04-2.42-2.11-3.26  s-2.3-1.27-3.68-1.27c-1.41,0-2.67,0.44-3.76,1.31s-1.79,1.99-2.1,3.36c-1.11,0.26-2.02,0.83-2.74,1.73S4.63,15.76,4.63,16.91z   M12.77,26.62c0,0.39,0.19,0.65,0.58,0.77c0.01,0,0.05,0,0.11,0.01c0.06,0.01,0.11,0.01,0.14,0.01c0.17,0,0.33-0.05,0.49-0.15  c0.16-0.1,0.27-0.26,0.32-0.48l2.25-8.69c0.06-0.24,0.04-0.45-0.07-0.65c-0.11-0.19-0.27-0.32-0.5-0.39  c-0.17-0.02-0.26-0.03-0.26-0.03c-0.16,0-0.32,0.05-0.47,0.15c-0.15,0.1-0.26,0.25-0.31,0.45l-2.26,8.72  C12.78,26.44,12.77,26.53,12.77,26.62z M16.93,23.56c0,0.13,0.03,0.26,0.1,0.38c0.14,0.22,0.31,0.37,0.51,0.44  c0.11,0.03,0.21,0.05,0.3,0.05s0.2-0.02,0.32-0.08c0.21-0.09,0.35-0.28,0.42-0.57l1.44-5.67c0.03-0.14,0.05-0.23,0.05-0.27  c0-0.15-0.05-0.3-0.16-0.45s-0.26-0.26-0.46-0.32c-0.17-0.02-0.26-0.03-0.26-0.03c-0.17,0-0.33,0.05-0.47,0.15  c-0.14,0.1-0.24,0.25-0.3,0.45l-1.46,5.7c0,0.02,0,0.05-0.01,0.11C16.93,23.5,16.93,23.53,16.93,23.56z"
   id="path2" />
<path
   style="fill:#ffffff;stroke:#ffffff;stroke-width:0.0373134"
   d="m 8.8619403,27.838254 c 0,-0.01392 0.8951056,-3.956897 0.9513787,-4.190866 l 0.020192,-0.08395 H 8.7395168 c -1.1126348,0 -1.1835467,-0.0084 -1.1835467,-0.140752 0,-0.02816 0.136193,-0.398402 0.3026512,-0.822761 0.1664581,-0.424359 0.3173897,-0.809941 0.3354035,-0.856848 0.025506,-0.06642 0.018397,-0.09017 -0.032129,-0.10734 C 7.294338,21.340855 6.6327325,20.935313 6.0588154,20.346617 4.7640858,19.018547 4.3264501,17.143032 4.8944752,15.356765 c 0.3809939,-1.198111 1.3789891,-2.341234 2.5253891,-2.89263 0.1495219,-0.07192 0.4449656,-0.18665 0.6565417,-0.254961 l 0.3846839,-0.124202 0.086256,-0.298771 c 0.626609,-2.1704431 2.3266511,-3.7599041 4.5281381,-4.2335998 0.517573,-0.1113666 1.557307,-0.1386953 2.120962,-0.055748 2.198033,0.3234621 4.031899,1.8679715 4.744394,3.9958008 l 0.149893,0.447645 0.485023,0.02434 c 0.266763,0.01339 0.624147,0.05227 0.794186,0.08641 1.738907,0.349134 3.186072,1.613456 3.738455,3.266119 0.208128,0.622697 0.257657,0.991639 0.235428,1.753732 -0.02456,0.842147 -0.143813,1.34167 -0.48547,2.033582 -0.294796,0.59701 -0.96055,1.377665 -1.53605,1.801154 -0.344779,0.253711 -0.893392,0.537232 -1.308919,0.676447 -0.595309,0.199446 -1.473657,0.307447 -1.547741,0.190309 -0.04371,-0.06911 -0.04739,-1.492273 -0.004,-1.560653 0.01725,-0.0272 0.147368,-0.06403 0.289158,-0.08183 0.793651,-0.09966 1.384691,-0.376176 1.948248,-0.911501 0.64913,-0.616609 0.95816,-1.284508 1.002264,-2.166165 0.04872,-0.973938 -0.233277,-1.711105 -0.921423,-2.408695 -0.409381,-0.414998 -0.79016,-0.666922 -1.242765,-0.822211 -0.460052,-0.157844 -0.700363,-0.182632 -1.779623,-0.183563 -0.543844,-4.7e-4 -1.012271,-0.01571 -1.04095,-0.03387 -0.03459,-0.0219 -0.07556,-0.213293 -0.121703,-0.568459 C 18.443803,11.872722 18.094506,11.093232 17.413876,10.399986 16.525119,9.4947543 15.552109,9.0763534 14.328399,9.0732101 13.34132,9.0706701 12.55236,9.3214298 11.80512,9.8751845 c -0.678558,0.5028565 -1.133403,1.0757285 -1.431098,1.8024525 -0.157889,0.385434 -0.227162,0.671758 -0.314056,1.29808 -0.03868,0.278767 -0.080047,0.522589 -0.091935,0.541825 -0.011889,0.01924 -0.1774605,0.0551 -0.367937,0.0797 -0.4909433,0.0634 -0.7217634,0.109058 -0.9993063,0.197651 -0.942977,0.301004 -1.7798698,1.108168 -2.0931228,2.018768 -0.2694001,0.783123 -0.2341742,1.687674 0.094681,2.431274 0.2388167,0.540007 0.8466666,1.206251 1.3741657,1.506177 0.3098669,0.176185 0.8087894,0.361397 0.8490013,0.31517 0.013859,-0.01593 0.2577806,-0.65645 0.5420471,-1.423372 0.284266,-0.766923 0.5484242,-1.434548 0.5870179,-1.483612 l 0.070169,-0.08921 1.572964,0.0097 c 1.435184,0.0089 1.574014,0.01519 1.58496,0.07206 0.0066,0.03428 -0.551477,1.116241 -1.240167,2.404356 -0.688691,1.288114 -1.252164,2.347043 -1.252164,2.353175 0,0.0061 0.514502,0.01559 1.143338,0.02102 0.970885,0.0084 1.148687,0.01835 1.178802,0.06612 0.02709,0.04297 -0.42987,0.740395 -1.936248,2.95511 -1.9243818,2.829272 -1.9746247,2.898908 -2.0929821,2.90084 -0.066698,0.0011 -0.1212687,-0.0053 -0.1212687,-0.01424 z"
   id="path374" /><path
   style="fill:#ffffff;stroke:#ffffff;stroke-width:0.0373134"
   d="m 13.414179,27.371202 c -0.42027,-0.08293 -0.672838,-0.434005 -0.622014,-0.864602 0.02674,-0.226542 2.248436,-8.81458 2.328383,-9.000436 0.238702,-0.554924 1.047743,-0.617474 1.405356,-0.108653 0.223318,0.317743 0.264324,0.111013 -0.963983,4.859952 -0.607776,2.349813 -1.137428,4.381723 -1.177005,4.515355 -0.1304,0.440304 -0.52844,0.685665 -0.970737,0.598384 z"
   id="path376" /><path
   style="fill:#ffffff;stroke:#ffffff;stroke-width:0.0373134"
   d="m 17.649254,24.388353 c -0.382965,-0.09871 -0.690299,-0.461219 -0.690299,-0.814218 0,-0.200072 1.481893,-5.969939 1.576642,-6.138778 0.122709,-0.218666 0.335983,-0.340063 0.628087,-0.357513 0.192931,-0.01152 0.277273,0.0014 0.39228,0.06006 0.314188,0.160287 0.52761,0.491651 0.485653,0.754037 -0.06337,0.396278 -1.526132,6.034729 -1.59938,6.165057 -0.14145,0.251676 -0.507957,0.404824 -0.792983,0.331354 z"
   id="path378" /></svg>
